<?xml version="1.0" encoding="UTF-8" standalone="no"?>
<svg
   sodipodi:docname="flavicon.svg"
   viewBox="0 0 104.89733 132.96726"
   height="132.96725"
   width="104.89733"
   xml:space="preserve"
   id="svg2"
   version="1.1"
   inkscape:version="1.4 (e7c3feb1, 2024-10-09)"
   inkscape:export-filename="/Users/adamsimpkin/dev/af3_mmseqs_scripts/ABCfold-logo.png"
   inkscape:export-xdpi="300"
   inkscape:export-ydpi="300"
   xmlns:inkscape="http://www.inkscape.org/namespaces/inkscape"
   xmlns:sodipodi="http://sodipodi.sourceforge.net/DTD/sodipodi-0.dtd"
   xmlns:xlink="http://www.w3.org/1999/xlink"
   xmlns="http://www.w3.org/2000/svg"
   xmlns:svg="http://www.w3.org/2000/svg"
   xmlns:rdf="http://www.w3.org/1999/02/22-rdf-syntax-ns#"
   xmlns:cc="http://creativecommons.org/ns#"
   xmlns:dc="http://purl.org/dc/elements/1.1/"><metadata
     id="metadata8"><rdf:RDF><cc:Work
         rdf:about=""><dc:format>image/svg+xml</dc:format><dc:type
           rdf:resource="http://purl.org/dc/dcmitype/StillImage" /></cc:Work></rdf:RDF></metadata><defs
     id="defs6"><linearGradient
       id="linearGradient19"
       inkscape:collect="always"><stop
         style="stop-color:#d3ffee;stop-opacity:1;"
         offset="0"
         id="stop17" /><stop
         style="stop-color:#019de0;stop-opacity:1;"
         offset="0.45969117"
         id="stop18" /><stop
         style="stop-color:#bbb3ef;stop-opacity:1;"
         offset="0.80000001"
         id="stop19" /></linearGradient><linearGradient
       id="linearGradient16"
       inkscape:collect="always"><stop
         style="stop-color:#d3ffee;stop-opacity:1;"
         offset="0"
         id="stop14" /><stop
         style="stop-color:#019de0;stop-opacity:1;"
         offset="0.45969117"
         id="stop15" /><stop
         style="stop-color:#bbb3ef;stop-opacity:1;"
         offset="0.80000001"
         id="stop16" /></linearGradient><linearGradient
       id="linearGradient13"
       inkscape:collect="always"><stop
         style="stop-color:#d3ffee;stop-opacity:1;"
         offset="0"
         id="stop11" /><stop
         style="stop-color:#019de0;stop-opacity:1;"
         offset="0.45969117"
         id="stop12" /><stop
         style="stop-color:#bbb3ef;stop-opacity:1;"
         offset="0.80000001"
         id="stop13" /></linearGradient><linearGradient
       id="linearGradient11"
       inkscape:collect="always"><stop
         style="stop-color:#d3ffee;stop-opacity:1;"
         offset="0"
         id="stop8" /><stop
         style="stop-color:#019de0;stop-opacity:1;"
         offset="0.45969117"
         id="stop9" /><stop
         style="stop-color:#bbb3ef;stop-opacity:1;"
         offset="0.79759854"
         id="stop10" /></linearGradient><linearGradient
       id="linearGradient951"
       inkscape:collect="always"><stop
         id="stop947"
         offset="0"
         style="stop-color:#0ec6e4;stop-opacity:1" /><stop
         id="stop949"
         offset="1"
         style="stop-color:#dc645f;stop-opacity:1" /></linearGradient><linearGradient
       inkscape:collect="always"
       id="linearGradient935"><stop
         style="stop-color:#ce241a;stop-opacity:1"
         offset="0"
         id="stop931" /><stop
         style="stop-color:#008080;stop-opacity:1"
         offset="1"
         id="stop933" /></linearGradient><linearGradient
       x1="0"
       y1="0"
       x2="1"
       y2="0"
       gradientUnits="userSpaceOnUse"
       gradientTransform="matrix(78.67334,0,0,-78.67334,43.089844,58.135742)"
       spreadMethod="pad"
       id="linearGradient36"><stop
         style="stop-opacity:1;stop-color:#00b0ab"
         offset="0"
         id="stop30" /><stop
         style="stop-opacity:1;stop-color:#00b0ab"
         offset="0.04385822"
         id="stop32" /><stop
         style="stop-opacity:1;stop-color:#59c9e8"
         offset="1"
         id="stop34" /></linearGradient><linearGradient
       x1="0"
       y1="0"
       x2="1"
       y2="0"
       gradientUnits="userSpaceOnUse"
       gradientTransform="matrix(78.67334,0,0,-78.67334,43.089844,74.318359)"
       spreadMethod="pad"
       id="linearGradient58"
       xlink:href="#linearGradient951"><stop
         style="stop-opacity:1;stop-color:#00b0ab"
         offset="0"
         id="stop52" /><stop
         style="stop-opacity:1;stop-color:#00b0ab"
         offset="0.04385822"
         id="stop54" /><stop
         style="stop-opacity:1;stop-color:#59c9e8"
         offset="1"
         id="stop56" /></linearGradient><linearGradient
       x1="0"
       y1="0"
       x2="1"
       y2="0"
       gradientUnits="userSpaceOnUse"
       gradientTransform="matrix(78.67334,0,0,-78.67334,43.089844,87.508789)"
       spreadMethod="pad"
       id="linearGradient80"
       xlink:href="#linearGradient935"><stop
         style="stop-opacity:1;stop-color:#00b0ab"
         offset="0"
         id="stop74" /><stop
         style="stop-opacity:1;stop-color:#00b0ab"
         offset="0.04385822"
         id="stop76" /><stop
         style="stop-opacity:1;stop-color:#59c9e8"
         offset="1"
         id="stop78" /></linearGradient><linearGradient
       x1="0"
       y1="0"
       x2="1"
       y2="0"
       gradientUnits="userSpaceOnUse"
       gradientTransform="matrix(78.67334,0,0,-78.67334,43.089844,103.68994)"
       spreadMethod="pad"
       id="linearGradient102"><stop
         style="stop-opacity:1;stop-color:#00b0ab"
         offset="0"
         id="stop96" /><stop
         style="stop-opacity:1;stop-color:#00b0ab"
         offset="0.04385822"
         id="stop98" /><stop
         style="stop-opacity:1;stop-color:#59c9e8"
         offset="1"
         id="stop100" /></linearGradient><clipPath
       clipPathUnits="userSpaceOnUse"
       id="clipPath112"><path
         d="M 0,170.597 H 482.581 V 0 H 0 Z"
         id="path110" /></clipPath><clipPath
       id="clipPath112-3"
       clipPathUnits="userSpaceOnUse"><path
         id="path110-5"
         d="M 0,170.597 H 482.581 V 0 H 0 Z" /></clipPath><clipPath
       id="clipPath112-35"
       clipPathUnits="userSpaceOnUse"><path
         id="path110-8"
         d="M 0,170.597 H 482.581 V 0 H 0 Z" /></clipPath><clipPath
       id="clipPath112-9"
       clipPathUnits="userSpaceOnUse"><path
         id="path110-0"
         d="M 0,170.597 H 482.581 V 0 H 0 Z" /></clipPath><clipPath
       clipPathUnits="userSpaceOnUse"
       id="clipPath3"><path
         d="M -296.022,111.9852 H 162.312 V -58.611804 h -458.334 z"
         id="path3"
         inkscape:connector-curvature="0"
         style="stroke-width:0.999998" /></clipPath><linearGradient
       inkscape:collect="always"
       xlink:href="#linearGradient13"
       id="linearGradient8"
       x1="43.09"
       y1="87.509003"
       x2="121.763"
       y2="87.509003"
       gradientUnits="userSpaceOnUse" /><linearGradient
       inkscape:collect="always"
       xlink:href="#linearGradient19"
       id="linearGradient9"
       x1="43.09"
       y1="74.318214"
       x2="121.763"
       y2="74.318214"
       gradientUnits="userSpaceOnUse" /><linearGradient
       inkscape:collect="always"
       xlink:href="#linearGradient11"
       id="linearGradient10"
       x1="43.09"
       y1="58.135502"
       x2="121.763"
       y2="58.135502"
       gradientUnits="userSpaceOnUse" /><linearGradient
       inkscape:collect="always"
       xlink:href="#linearGradient16"
       id="linearGradient1"
       x1="43.09"
       y1="103.69018"
       x2="121.763"
       y2="103.69018"
       gradientUnits="userSpaceOnUse" /><linearGradient
       inkscape:collect="always"
       xlink:href="#linearGradient11"
       id="linearGradient2"
       gradientUnits="userSpaceOnUse"
       x1="43.09"
       y1="58.135502"
       x2="121.763"
       y2="58.135502" /><linearGradient
       inkscape:collect="always"
       xlink:href="#linearGradient11"
       id="linearGradient3"
       gradientUnits="userSpaceOnUse"
       x1="43.09"
       y1="58.135502"
       x2="121.763"
       y2="58.135502" /><linearGradient
       inkscape:collect="always"
       xlink:href="#linearGradient11"
       id="linearGradient4"
       gradientUnits="userSpaceOnUse"
       x1="43.09"
       y1="58.135502"
       x2="121.763"
       y2="58.135502" /><linearGradient
       inkscape:collect="always"
       xlink:href="#linearGradient11"
       id="linearGradient5"
       gradientUnits="userSpaceOnUse"
       x1="43.09"
       y1="58.135502"
       x2="121.763"
       y2="58.135502" /><linearGradient
       inkscape:collect="always"
       xlink:href="#linearGradient19"
       id="linearGradient6"
       gradientUnits="userSpaceOnUse"
       x1="43.09"
       y1="74.318214"
       x2="121.763"
       y2="74.318214" /><linearGradient
       inkscape:collect="always"
       xlink:href="#linearGradient19"
       id="linearGradient7"
       gradientUnits="userSpaceOnUse"
       x1="43.09"
       y1="74.318214"
       x2="121.763"
       y2="74.318214" /><linearGradient
       inkscape:collect="always"
       xlink:href="#linearGradient19"
       id="linearGradient12"
       gradientUnits="userSpaceOnUse"
       x1="43.09"
       y1="74.318214"
       x2="121.763"
       y2="74.318214" /><linearGradient
       inkscape:collect="always"
       xlink:href="#linearGradient19"
       id="linearGradient14"
       gradientUnits="userSpaceOnUse"
       x1="43.09"
       y1="74.318214"
       x2="121.763"
       y2="74.318214" /><linearGradient
       inkscape:collect="always"
       xlink:href="#linearGradient13"
       id="linearGradient15"
       gradientUnits="userSpaceOnUse"
       x1="43.09"
       y1="87.509003"
       x2="121.763"
       y2="87.509003" /><linearGradient
       inkscape:collect="always"
       xlink:href="#linearGradient13"
       id="linearGradient17"
       gradientUnits="userSpaceOnUse"
       x1="43.09"
       y1="87.509003"
       x2="121.763"
       y2="87.509003" /><linearGradient
       inkscape:collect="always"
       xlink:href="#linearGradient13"
       id="linearGradient18"
       gradientUnits="userSpaceOnUse"
       x1="43.09"
       y1="87.509003"
       x2="121.763"
       y2="87.509003" /><linearGradient
       inkscape:collect="always"
       xlink:href="#linearGradient13"
       id="linearGradient20"
       gradientUnits="userSpaceOnUse"
       x1="43.09"
       y1="87.509003"
       x2="121.763"
       y2="87.509003" /><linearGradient
       inkscape:collect="always"
       xlink:href="#linearGradient16"
       id="linearGradient21"
       gradientUnits="userSpaceOnUse"
       x1="43.09"
       y1="103.69018"
       x2="121.763"
       y2="103.69018" /><linearGradient
       inkscape:collect="always"
       xlink:href="#linearGradient16"
       id="linearGradient22"
       gradientUnits="userSpaceOnUse"
       x1="43.09"
       y1="103.69018"
       x2="121.763"
       y2="103.69018" /><linearGradient
       inkscape:collect="always"
       xlink:href="#linearGradient16"
       id="linearGradient23"
       gradientUnits="userSpaceOnUse"
       x1="43.09"
       y1="103.69018"
       x2="121.763"
       y2="103.69018" /><linearGradient
       inkscape:collect="always"
       xlink:href="#linearGradient16"
       id="linearGradient24"
       gradientUnits="userSpaceOnUse"
       x1="43.09"
       y1="103.69018"
       x2="121.763"
       y2="103.69018" /></defs><sodipodi:namedview
     pagecolor="#ffffff"
     bordercolor="#666666"
     borderopacity="1"
     objecttolerance="10"
     gridtolerance="10"
     guidetolerance="10"
     inkscape:pageopacity="0"
     inkscape:pageshadow="2"
     inkscape:window-width="2560"
     inkscape:window-height="1314"
     id="namedview4"
     inkscape:document-rotation="0"
     showgrid="false"
     inkscape:zoom="1.3155382"
     inkscape:cx="496.37479"
     inkscape:cy="91.597492"
     inkscape:window-x="0"
     inkscape:window-y="25"
     inkscape:window-maximized="1"
     inkscape:current-layer="g10"
     inkscape:snap-text-baseline="false"
     inkscape:showpageshadow="2"
     inkscape:pagecheckerboard="0"
     inkscape:deskcolor="#d1d1d1"
     inkscape:export-bgcolor="#ffffff00" /><g
     id="g10"
     inkscape:groupmode="layer"
     inkscape:label="MrBUMP-logo"
     transform="matrix(1.3333333,0,0,-1.3333333,-3.3383612,227.46267)"><g
       transform="translate(-40.586229,40.814991)"
       id="g18"
       style="fill:url(#linearGradient10)"><g
         id="g20"
         style="fill:url(#linearGradient5)"><g
           id="g26"
           style="fill:url(#linearGradient4)"><g
             id="g28"
             style="fill:url(#linearGradient3)"><path
               d="M 82.426,64.44 C 72.548,62.887 62.669,61.335 52.79,62.427 v 0 1.995 c -1.615,-1.068 -3.231,-2.065 -4.847,-2.979 v 0 c -1.618,-0.92 -3.235,-1.757 -4.853,-2.5 v 0 c 1.618,-1.751 3.235,-3.408 4.853,-4.983 v 0 c 1.616,-1.582 3.232,-3.08 4.847,-4.509 v 0 2.014 c 9.879,-1.092 19.758,0.461 29.637,2.013 v 0 c 13.113,2.061 26.224,4.122 39.336,10e-4 v 0 10.961 c -5.541,1.742 -11.084,2.38 -16.626,2.38 v 0 c -7.571,0 -15.14,-1.19 -22.711,-2.38"
               style="fill:url(#linearGradient2);fill-opacity:1;stroke:none"
               id="path38" /></g></g></g></g><g
       transform="translate(-40.586229,40.814991)"
       id="g40"
       style="fill:url(#linearGradient9)"><g
         id="g42"
         style="fill:url(#linearGradient14)"><g
           id="g48"
           style="fill:url(#linearGradient12)"><g
             id="g50"
             style="fill:url(#linearGradient7)"><path
               d="m 112.059,80.993 c -9.877,1.09 -19.755,-0.463 -29.633,-2.015 v 0 c -13.112,-2.061 -26.224,-4.122 -39.336,0 v 0 -10.95 c 13.112,-4.123 26.224,-2.062 39.336,0 v 0 c 9.878,1.553 19.756,3.105 29.633,2.015 v 0 -2.011 c 1.615,1.068 3.232,2.065 4.847,2.982 v 0 c 1.619,0.916 3.239,1.75 4.857,2.491 v 0 c -1.618,1.755 -3.238,3.415 -4.857,4.994 v 0 c -1.615,1.575 -3.232,3.068 -4.847,4.49 v 0 z"
               style="fill:url(#linearGradient6);fill-opacity:1;stroke:none"
               id="path60" /></g></g></g></g><g
       transform="translate(-40.586229,40.814991)"
       id="g62"
       style="fill:url(#linearGradient8)"><g
         id="g64"
         style="fill:url(#linearGradient20)"><g
           id="g70"
           style="fill:url(#linearGradient18)"><g
             id="g72"
             style="fill:url(#linearGradient17)"><path
               d="M 82.427,93.806 C 72.548,92.254 62.669,90.701 52.79,91.793 v 0 2.003 c -1.615,-1.069 -3.231,-2.068 -4.847,-2.984 v 0 C 46.325,89.898 44.708,89.066 43.09,88.329 v 0 c 1.618,-1.758 3.235,-3.421 4.853,-5.002 v 0 c 1.616,-1.576 3.232,-3.071 4.847,-4.495 v 0 2.009 c 9.879,-1.092 19.757,0.46 29.636,2.014 v 0 c 13.112,2.061 26.225,4.122 39.337,0 v 0 10.952 c -5.541,1.742 -11.083,2.379 -16.624,2.379 v 0 c -7.57,0 -15.141,-1.19 -22.712,-2.38"
               style="fill:url(#linearGradient15);fill-opacity:1;stroke:none"
               id="path82" /></g></g></g></g><g
       transform="translate(-40.586229,40.814991)"
       id="g84"
       style="fill:url(#linearGradient1)"><g
         id="g86"
         style="fill:url(#linearGradient24);fill-opacity:1;stroke-width:1.00063;stroke-miterlimit:4;stroke-dasharray:none"><g
           id="g92"
           style="fill:url(#linearGradient23);fill-opacity:1;stroke-width:1.00063;stroke-miterlimit:4;stroke-dasharray:none"><g
             id="g94"
             style="fill:url(#linearGradient22);fill-opacity:1;stroke-width:1.00063;stroke-miterlimit:4;stroke-dasharray:none"><path
               d="m 112.059,110.362 c -9.877,1.09 -19.755,-0.463 -29.632,-2.016 v 0 c -13.113,-2.06 -26.225,-4.121 -39.337,10e-4 v 0 -10.953 c 13.112,-4.123 26.224,-2.062 39.337,-0.001 v 0 c 9.877,1.552 19.755,3.105 29.632,2.015 v 0 -2.007 c 1.615,1.072 3.232,2.072 4.847,2.99 v 0 c 1.619,0.914 3.239,1.746 4.857,2.483 v 0 c -1.618,1.758 -3.238,3.421 -4.857,5.003 v 0 c -1.615,1.575 -3.232,3.068 -4.847,4.49 v 0 z"
               style="fill:url(#linearGradient21);fill-opacity:1;stroke:none;stroke-width:1.00063;stroke-miterlimit:4;stroke-dasharray:none"
               id="path104" /></g></g></g></g><g
       transform="translate(-40.586229,40.814991)"
       id="g106"
       style="fill:#3b3b3d;fill-opacity:1"><g
         id="g108"
         clip-path="url(#clipPath112)"
         style="fill:#3b3b3d;fill-opacity:1"><g
           id="g114"
           transform="translate(69.0439,54.9854)"
           style="fill:#3b3b3d;fill-opacity:1"><path
             d="m 0,0 c 0,0 0.256,-1.832 2.838,-2.763 2.581,-0.919 6.994,-1.99 12.551,-2.32 5.563,-0.319 13.576,-0.911 17.83,-2.291 4.266,-1.376 4.29,-1.562 5.441,-2.354 1.138,-0.803 1.359,-2.614 1.359,-2.614 l 0.895,-5.05 1.311,-7.358 c 0,0 -0.229,1.812 -1.371,2.612 -1.139,0.804 -1.172,0.982 -5.426,2.363 -4.263,1.374 -12.267,1.955 -17.845,2.294 -5.563,0.329 -9.963,1.397 -12.545,2.325 -2.581,0.921 -2.841,2.758 -2.841,2.758 z"
             style="fill:#3b3b3d;fill-opacity:1;fill-rule:nonzero;stroke:none"
             id="path116" /></g><g
           id="g118"
           transform="translate(69.0439,54.9854)"
           style="fill:#3b3b3d;fill-opacity:1"><path
             d="m 0,0 c 0,0 0.256,-1.832 2.838,-2.763 2.581,-0.919 6.994,-1.99 12.551,-2.32 5.563,-0.319 13.576,-0.911 17.83,-2.291 4.266,-1.376 4.29,-1.562 5.441,-2.354 1.138,-0.803 1.359,-2.614 1.359,-2.614 l 0.895,-5.05 1.311,-7.358 c 0,0 -0.229,1.812 -1.371,2.612 -1.139,0.804 -1.172,0.982 -5.426,2.363 -4.263,1.374 -12.267,1.955 -17.845,2.294 -5.563,0.329 -9.963,1.397 -12.545,2.325 -2.581,0.921 -2.841,2.758 -2.841,2.758 z"
             style="fill:#3b3b3d;fill-opacity:1;stroke:#ffffff;stroke-width:2.039;stroke-linecap:butt;stroke-linejoin:miter;stroke-miterlimit:10;stroke-dasharray:none;stroke-opacity:1"
             id="path120" /></g><g
           id="g122"
           transform="translate(55.8193,129.6045)"
           style="fill:#3b3b3d;fill-opacity:1"><path
             d="m 0,0 c 0,0 0.253,-1.848 2.829,-2.764 2.585,-0.925 7,-1.985 12.554,-2.315 5.572,-0.335 13.576,-0.919 17.827,-2.299 4.269,-1.376 4.311,-1.561 5.45,-2.359 1.132,-0.794 1.365,-2.614 1.365,-2.614 l 0.894,-5.041 1.306,-7.362 c 0,0 -0.226,1.808 -1.371,2.616 -1.139,0.79 -1.175,0.974 -5.437,2.359 -4.258,1.372 -12.253,1.964 -17.834,2.284 -5.563,0.338 -9.96,1.406 -12.551,2.329 -2.57,0.922 -2.838,2.758 -2.838,2.758 z"
             style="fill:#3b3b3d;fill-opacity:1;fill-rule:nonzero;stroke:none"
             id="path124" /></g><g
           id="g126"
           transform="translate(55.8193,129.6045)"
           style="fill:#3b3b3d;fill-opacity:1"><path
             d="m 0,0 c 0,0 0.253,-1.848 2.829,-2.764 2.585,-0.925 7,-1.985 12.554,-2.315 5.572,-0.335 13.576,-0.919 17.827,-2.299 4.269,-1.376 4.311,-1.561 5.45,-2.359 1.132,-0.794 1.365,-2.614 1.365,-2.614 l 0.894,-5.041 1.306,-7.362 c 0,0 -0.226,1.808 -1.371,2.616 -1.139,0.79 -1.175,0.974 -5.437,2.359 -4.258,1.372 -12.253,1.964 -17.834,2.284 -5.563,0.338 -9.96,1.406 -12.551,2.329 -2.57,0.922 -2.838,2.758 -2.838,2.758 z"
             style="fill:#3b3b3d;fill-opacity:1;stroke:#ffffff;stroke-width:2.039;stroke-linecap:butt;stroke-linejoin:miter;stroke-miterlimit:10;stroke-dasharray:none;stroke-opacity:1"
             id="path128" /></g><g
           id="g130"
           transform="translate(62.4375,92.1982)"
           style="fill:#3b3b3d;fill-opacity:1"><path
             d="m 0,0 c 0,0 0.262,-1.832 2.844,-2.761 2.582,-0.919 6.994,-1.988 12.557,-2.316 5.569,-0.325 13.576,-0.917 17.827,-2.293 4.263,-1.384 4.293,-1.557 5.438,-2.358 1.145,-0.806 1.371,-2.614 1.371,-2.614 l 0.895,-5.05 1.299,-7.358 c 0,0 -0.214,1.816 -1.365,2.616 -1.145,0.803 -1.175,0.982 -5.426,2.363 -4.263,1.374 -12.27,1.96 -17.845,2.285 -5.563,0.334 -9.972,1.413 -12.557,2.331 -2.576,0.92 -2.832,2.756 -2.832,2.756 z"
             style="fill:#3b3b3d;fill-opacity:1;fill-rule:nonzero;stroke:none"
             id="path132" /></g><g
           id="g134"
           transform="translate(62.4375,92.1982)"
           style="fill:#3b3b3d;fill-opacity:1"><path
             d="m 0,0 c 0,0 0.262,-1.832 2.844,-2.761 2.582,-0.919 6.994,-1.988 12.557,-2.316 5.569,-0.325 13.576,-0.917 17.827,-2.293 4.263,-1.384 4.293,-1.557 5.438,-2.358 1.145,-0.806 1.371,-2.614 1.371,-2.614 l 0.895,-5.05 1.299,-7.358 c 0,0 -0.214,1.816 -1.365,2.616 -1.145,0.803 -1.175,0.982 -5.426,2.363 -4.263,1.374 -12.27,1.96 -17.845,2.285 -5.563,0.334 -9.972,1.413 -12.557,2.331 -2.576,0.92 -2.832,2.756 -2.832,2.756 z"
             style="fill:#3b3b3d;fill-opacity:1;stroke:#ffffff;stroke-width:2.039;stroke-linecap:butt;stroke-linejoin:miter;stroke-miterlimit:10;stroke-dasharray:none;stroke-opacity:1"
             id="path136" /></g><g
           id="g138"
           transform="translate(64.5122,80.5625)"
           style="fill:#3b3b3d;fill-opacity:1"><path
             d="m 0,0 c 0,0 -0.394,1.808 1.714,3.572 2.102,1.745 5.882,4.267 10.986,6.494 5.128,2.212 12.438,5.523 15.961,8.28 3.527,2.758 3.482,2.937 4.287,4.085 0.805,1.137 0.394,2.92 0.394,2.92 l -0.898,5.054 -1.314,7.356 c 0,0 0.423,-1.777 -0.373,-2.918 -0.802,-1.147 -0.772,-1.331 -4.296,-4.092 -3.515,-2.754 -10.842,-6.065 -15.955,-8.288 -5.11,-2.215 -8.884,-4.737 -10.995,-6.488 -2.104,-1.758 -1.714,-3.57 -1.714,-3.57 z"
             style="fill:#3b3b3d;fill-opacity:1;fill-rule:nonzero;stroke:none"
             id="path140" /></g><g
           id="g142"
           transform="translate(64.5122,80.5625)"
           style="fill:#3b3b3d;fill-opacity:1"><path
             d="m 0,0 c 0,0 -0.394,1.808 1.714,3.572 2.102,1.745 5.882,4.267 10.986,6.494 5.128,2.212 12.438,5.523 15.961,8.28 3.527,2.758 3.482,2.937 4.287,4.085 0.805,1.137 0.394,2.92 0.394,2.92 l -0.898,5.054 -1.314,7.356 c 0,0 0.423,-1.777 -0.373,-2.918 -0.802,-1.147 -0.772,-1.331 -4.296,-4.092 -3.515,-2.754 -10.842,-6.065 -15.955,-8.288 -5.11,-2.215 -8.884,-4.737 -10.995,-6.488 -2.104,-1.758 -1.714,-3.57 -1.714,-3.57 z"
             style="fill:#3b3b3d;fill-opacity:1;stroke:#ffffff;stroke-width:2.039;stroke-linecap:butt;stroke-linejoin:miter;stroke-miterlimit:10;stroke-dasharray:none;stroke-opacity:1"
             id="path144" /></g><g
           id="g146"
           transform="translate(71.1665,43.0103)"
           style="fill:#3b3b3d;fill-opacity:1"><path
             d="m 0,0 c 0,0 -0.394,1.824 1.711,3.57 2.111,1.754 5.891,4.273 11,6.496 5.116,2.215 12.426,5.53 15.95,8.276 3.529,2.767 3.488,2.95 4.305,4.082 0.793,1.159 0.375,2.934 0.375,2.934 l -0.888,5.053 -1.318,7.347 c 0,0 0.418,-1.769 -0.375,-2.917 C 29.961,33.695 29.987,33.51 26.467,30.745 22.949,28 15.621,24.7 10.505,22.469 5.393,20.239 1.627,17.728 -0.489,15.97 -2.588,14.223 -2.197,12.391 -2.197,12.391 Z"
             style="fill:#3b3b3d;fill-opacity:1;fill-rule:nonzero;stroke:none"
             id="path148" /></g><g
           id="g150"
           transform="translate(71.1665,43.0103)"
           style="fill:#3b3b3d;fill-opacity:1"><path
             d="m 0,0 c 0,0 -0.394,1.824 1.711,3.57 2.111,1.754 5.891,4.273 11,6.496 5.116,2.215 12.426,5.53 15.95,8.276 3.529,2.767 3.488,2.95 4.305,4.082 0.793,1.159 0.375,2.934 0.375,2.934 l -0.888,5.053 -1.318,7.347 c 0,0 0.418,-1.769 -0.375,-2.917 C 29.961,33.695 29.987,33.51 26.467,30.745 22.949,28 15.621,24.7 10.505,22.469 5.393,20.239 1.627,17.728 -0.489,15.97 -2.588,14.223 -2.197,12.391 -2.197,12.391 Z"
             style="fill:#3b3b3d;fill-opacity:1;stroke:#ffffff;stroke-width:2.039;stroke-linecap:butt;stroke-linejoin:miter;stroke-miterlimit:10;stroke-dasharray:none;stroke-opacity:1"
             id="path152" /></g></g></g><text
       xml:space="preserve"
       style="font-size:99.9997px;line-height:1.25;font-family:sans-serif;text-align:center;text-anchor:middle;stroke-width:0.75"
       x="243.37419"
       y="18.18469"
       id="text13"
       transform="scale(1,-1)"><tspan
         sodipodi:role="line"
         id="tspan13"
         style="stroke-width:0.75"
         x="243.37419"
         y="18.18469" /></text></g></svg>
